{
  "accessors": [
    {
      "bufferView": 2,
      "componentType": 5126,
      "count": 384,
      "max": [
        6.003819465637207,
        1.091817855834961,
        1.0
      ],
      "min": [
        -5.152595043182373,
        -1.0343025922775269,
        -1.0
      ],
      "type": "VEC3"
    },
    {
      "bufferView": 2,
      "byteOffset": 4608,
      "componentType": 5126,
      "count": 384,
      "max": [
        1.0,
        0.9999356865882874,
        1.0
      ],
      "min": [
        -1.0,
        -0.9999356865882874,
        -1.0
      ],
      "type": "VEC3"
    },
    {
      "bufferView": 1,
      "componentType": 5126,
      "count": 384,
      "max": [
        0.8631635904312134,
        0.9334279894828796
      ],
      "min": [
        0.017060017213225365,
        0.044888198375701904
      ],
      "type": "VEC2"
    },
    {
      "bufferView": 0,
      "componentType": 5125,
      "count": 564,
      "type": "SCALAR"
    },
    {
      "bufferView": 2,
      "byteOffset": 9216,
      "componentType": 5126,
      "count": 384,
      "max": [
        6.003819465637207,
        1.091817855834961,
        1.0
      ],
      "min": [
        -5.152595043182373,
        -1.0343025922775269,
        -1.0
      ],
      "type": "VEC3"
    },
    {
      "bufferView": 2,
      "byteOffset": 13824,
      "componentType": 5126,
      "count": 384,
      "max": [
        1.0,
        0.9999356865882874,
        1.0
      ],
      "min": [
        -1.0,
        -0.9999356865882874,
        -1.0
      ],
      "type": "VEC3"
    },
    {
      "bufferView": 1,
      "byteOffset": 3072,
      "componentType": 5126,
      "count": 384,
      "max": [
        0.9857603311538696,
        0.9334279894828796
      ],
      "min": [
        0.017060017213225365,
        0.11226710677146912
      ],
      "type": "VEC2"
    },
    {
      "bufferView": 0,
      "byteOffset": 2256,
      "componentType": 5125,
      "count": 564,
      "type": "SCALAR"
    },
    {
      "bufferView": 2,
      "byteOffset": 18432,
      "componentType": 5126,
      "count": 164,
      "max": [
        0.33881044387817383,
        0.9986037611961365,
        0.7017143964767456
      ],
      "min": [
        -0.33881598711013794,
        -0.33882197737693787,
        -0.990954577922821
      ],
      "type": "VEC3"
    },
    {
      "bufferView": 2,
      "byteOffset": 20400,
      "componentType": 5126,
      "count": 164,
      "max": [
        0.995184600353241,
        0.9951847791671753,
        1.0
      ],
      "min": [
        -0.9951847195625305,
        -0.9951847791671753,
        -0.7071076035499573
      ],
      "type": "VEC3"
    },
    {
      "bufferView": 1,
      "byteOffset": 6144,
      "componentType": 5126,
      "count": 164,
      "max": [
        1.0,
        1.0
      ],
      "min": [
        0.0,
        0.01000000536441803
      ],
      "type": "VEC2"
    },
    {
      "bufferView": 0,
      "byteOffset": 4512,
      "componentType": 5125,
      "count": 288,
      "type": "SCALAR"
    },
    {
      "bufferView": 2,
      "byteOffset": 22368,
      "componentType": 5126,
      "count": 796,
      "max": [
        1.21176278591156,
        1.0000001192092896,
        0.3356599807739258
      ],
      "min": [
        -1.211762547492981,
        -1.0000001192092896,
        -0.9923463463783264
      ],
      "type": "VEC3"
    },
    {
      "bufferView": 2,
      "byteOffset": 31920,
      "componentType": 5126,
      "count": 796,
      "max": [
        0.9929533004760742,
        0.9967131018638611,
        0.9999712705612183
      ],
      "min": [
        -0.9929532408714294,
        -0.9967131018638611,
        -1.0
      ],
      "type": "VEC3"
    },
    {
      "bufferView": 1,
      "byteOffset": 7456,
      "componentType": 5126,
      "count": 796,
      "max": [
        1.0,
        0.8331433534622192
      ],
      "min": [
        0.0,
        0.49999988079071045
      ],
      "type": "VEC2"
    },
    {
      "bufferView": 0,
      "byteOffset": 5664,
      "componentType": 5125,
      "count": 1236,
      "type": "SCALAR"
    },
    {
      "bufferView": 2,
      "byteOffset": 41472,
      "componentType": 5126,
      "count": 164,
      "max": [
        0.33881044387817383,
        0.9986037611961365,
        0.7017143964767456
      ],
      "min": [
        -0.33881598711013794,
        -0.33882197737693787,
        -0.990954577922821
      ],
      "type": "VEC3"
    },
    {
      "bufferView": 2,
      "byteOffset": 43440,
      "componentType": 5126,
      "count": 164,
      "max": [
        0.995184600353241,
        0.9951847791671753,
        1.0
      ],
      "min": [
        -0.9951847195625305,
        -0.9951847791671753,
        -0.7071076035499573
      ],
      "type": "VEC3"
    },
    {
      "bufferView": 1,
      "byteOffset": 13824,
      "componentType": 5126,
      "count": 164,
      "max": [
        1.0,
        1.0
      ],
      "min": [
        0.0,
        0.01000000536441803
      ],
      "type": "VEC2"
    },
    {
      "bufferView": 0,
      "byteOffset": 10608,
      "componentType": 5125,
      "count": 288,
      "type": "SCALAR"
    },
    {
      "bufferView": 2,
      "byteOffset": 45408,
      "componentType": 5126,
      "count": 796,
      "max": [
        1.21176278591156,
        1.0000001192092896,
        0.3356599807739258
      ],
      "min": [
        -1.211762547492981,
        -1.0000001192092896,
        -0.9923463463783264
      ],
      "type": "VEC3"
    },
    {
      "bufferView": 2,
      "byteOffset": 54960,
      "componentType": 5126,
      "count": 796,
      "max": [
        0.9929533004760742,
        0.9967131018638611,
        0.9999712705612183
      ],
      "min": [
        -0.9929532408714294,
        -0.9967131018638611,
        -1.0
      ],
      "type": "VEC3"
    },
    {
      "bufferView": 1,
      "byteOffset": 15136,
      "componentType": 5126,
      "count": 796,
      "max": [
        1.0,
        0.8331433534622192
      ],
      "min": [
        0.0,
        0.49999988079071045
      ],
      "type": "VEC2"
    },
    {
      "bufferView": 0,
      "byteOffset": 11760,
      "componentType": 5125,
      "count": 1236,
      "type": "SCALAR"
    },
    {
      "bufferView": 2,
      "byteOffset": 64512,
      "componentType": 5126,
      "count": 164,
      "max": [
        0.33881044387817383,
        0.9986037611961365,
        0.7017143964767456
      ],
      "min": [
        -0.33881598711013794,
        -0.33882197737693787,
        -0.990954577922821
      ],
      "type": "VEC3"
    },
    {
      "bufferView": 2,
      "byteOffset": 66480,
      "componentType": 5126,
      "count": 164,
      "max": [
        0.995184600353241,
        0.9951847791671753,
        1.0
      ],
      "min": [
        -0.9951847195625305,
        -0.9951847791671753,
        -0.7071076035499573
      ],
      "type": "VEC3"
    },
    {
      "bufferView": 1,
      "byteOffset": 21504,
      "componentType": 5126,
      "count": 164,
      "max": [
        1.0,
        1.0
      ],
      "min": [
        0.0,
        0.01000000536441803
      ],
      "type": "VEC2"
    },
    {
      "bufferView": 0,
      "byteOffset": 16704,
      "componentType": 5125,
      "count": 288,
      "type": "SCALAR"
    },
    {
      "bufferView": 2,
      "byteOffset": 68448,
      "componentType": 5126,
      "count": 796,
      "max": [
        1.21176278591156,
        1.0000001192092896,
        0.3356599807739258
      ],
      "min": [
        -1.211762547492981,
        -1.0000001192092896,
        -0.9923463463783264
      ],
      "type": "VEC3"
    },
    {
      "bufferView": 2,
      "byteOffset": 78000,
      "componentType": 5126,
      "count": 796,
      "max": [
        0.9929533004760742,
        0.9967131018638611,
        0.9999712705612183
      ],
      "min": [
        -0.9929532408714294,
        -0.9967131018638611,
        -1.0
      ],
      "type": "VEC3"
    },
    {
      "bufferView": 1,
      "byteOffset": 22816,
      "componentType": 5126,
      "count": 796,
      "max": [
        1.0,
        0.8331433534622192
      ],
      "min": [
        0.0,
        0.49999988079071045
      ],
      "type": "VEC2"
    },
    {
      "bufferView": 0,
      "byteOffset": 17856,
      "componentType": 5125,
      "count": 1236,
      "type": "SCALAR"
    }
  ],
  "asset": {
    "extras": {
      "author": "Ellipsoid (https://sketchfab.com/Ellipsoid)",
      "license": "CC-BY-4.0 (http://creativecommons.org/licenses/by/4.0/)",
      "source": "https://sketchfab.com/3d-models/incense-sticks-nag-champa-atchouli-b8b21230410d4c3ebca9e205e06f8925",
      "title": "Incense Sticks Nag Champa Atchouli"
    },
    "generator": "Sketchfab-15.36.0",
    "version": "2.0"
  },
  "bufferViews": [
    {
      "buffer": 0,
      "byteLength": 22800,
      "name": "floatBufferViews",
      "target": 34963
    },
    {
      "buffer": 0,
      "byteLength": 29184,
      "byteOffset": 22800,
      "byteStride": 8,
      "name": "floatBufferViews",
      "target": 34962
    },
    {
      "buffer": 0,
      "byteLength": 87552,
      "byteOffset": 51984,
      "byteStride": 12,
      "name": "floatBufferViews",
      "target": 34962
    }
  ],
  "buffers": [
    {
      "byteLength": 139536,
      "uri": "scene.bin"
    }
  ],
  "images": [
    {
      "uri": "textures/Material.002_baseColor.png"
    }
  ],
  "materials": [
    {
      "doubleSided": true,
      "name": "Material.002",
      "pbrMetallicRoughness": {
        "baseColorTexture": {
          "index": 0
        },
        "metallicFactor": 0.0,
        "roughnessFactor": 0.7751223364243813
      }
    },
    {
      "doubleSided": true,
      "name": "Material.003",
      "pbrMetallicRoughness": {
        "baseColorTexture": {
          "index": 0
        },
        "metallicFactor": 0.0,
        "roughnessFactor": 0.7751223364243813
      }
    },
    {
      "doubleSided": true,
      "name": "Material.004",
      "pbrMetallicRoughness": {
        "baseColorFactor": [
          0.8,
          0.615383,
          0.325785,
          1.0
        ],
        "metallicFactor": 0.0,
        "roughnessFactor": 0.8582950954584609
      }
    },
    {
      "doubleSided": true,
      "name": "Material.005",
      "pbrMetallicRoughness": {
        "baseColorFactor": [
          0.132864,
          0.0936629,
          0.0469599,
          1.0
        ],
        "metallicFactor": 0.0
      }
    }
  ],
  "meshes": [
    {
      "name": "Cube_Material.002_0",
      "primitives": [
        {
          "attributes": {
            "NORMAL": 1,
            "POSITION": 0,
            "TEXCOORD_0": 2
          },
          "indices": 3,
          "material": 0,
          "mode": 4
        }
      ]
    },
    {
      "name": "Cube.001_Material.003_0",
      "primitives": [
        {
          "attributes": {
            "NORMAL": 5,
            "POSITION": 4,
            "TEXCOORD_0": 6
          },
          "indices": 7,
          "material": 1,
          "mode": 4
        }
      ]
    },
    {
      "name": "Cylinder_Material.004_0",
      "primitives": [
        {
          "attributes": {
            "NORMAL": 9,
            "POSITION": 8,
            "TEXCOORD_0": 10
          },
          "indices": 11,
          "material": 2,
          "mode": 4
        }
      ]
    },
    {
      "name": "Cylinder_Material.005_0",
      "primitives": [
        {
          "attributes": {
            "NORMAL": 13,
            "POSITION": 12,
            "TEXCOORD_0": 14
          },
          "indices": 15,
          "material": 3,
          "mode": 4
        }
      ]
    },
    {
      "name": "Cylinder.001_Material.004_0",
      "primitives": [
        {
          "attributes": {
            "NORMAL": 17,
            "POSITION": 16,
            "TEXCOORD_0": 18
          },
          "indices": 19,
          "material": 2,
          "mode": 4
        }
      ]
    },
    {
      "name": "Cylinder.001_Material.005_0",
      "primitives": [
        {
          "attributes": {
            "NORMAL": 21,
            "POSITION": 20,
            "TEXCOORD_0": 22
          },
          "indices": 23,
          "material": 3,
          "mode": 4
        }
      ]
    },
    {
      "name": "Cylinder.002_Material.004_0",
      "primitives": [
        {
          "attributes": {
            "NORMAL": 25,
            "POSITION": 24,
            "TEXCOORD_0": 26
          },
          "indices": 27,
          "material": 2,
          "mode": 4
        }
      ]
    },
    {
      "name": "Cylinder.002_Material.005_0",
      "primitives": [
        {
          "attributes": {
            "NORMAL": 29,
            "POSITION": 28,
            "TEXCOORD_0": 30
          },
          "indices": 31,
          "material": 3,
          "mode": 4
        }
      ]
    }
  ],
  "nodes": [
    {
      "children": [
        1
      ],
      "matrix": [
        1.0,
        0.0,
        0.0,
        0.0,
        0.0,
        2.220446049250313e-16,
        -1.0,
        0.0,
        0.0,
        1.0,
        2.220446049250313e-16,
        0.0,
        0.0,
        0.0,
        0.0,
        1.0
      ],
      "name": "Sketchfab_model"
    },
    {
      "children": [
        2
      ],
      "matrix": [
        0.009999999776482582,
        0.0,
        0.0,
        0.0,
        0.0,
        0.0,
        0.009999999776482582,
        0.0,
        0.0,
        -0.009999999776482582,
        0.0,
        0.0,
        0.0,
        0.0,
        0.0,
        1.0
      ],
      "name": "Incense.fbx"
    },
    {
      "children": [
        3,
        5,
        7,
        10,
        13
      ],
      "name": "RootNode"
    },
    {
      "children": [
        4
      ],
      "matrix": [
        11.939436063686607,
        0.1379713087745841,
        -1.7263981688878013e-16,
        0.0,
        -0.137971308774584,
        11.939436063686596,
        5.219241709765665e-07,
        0.0,
        2.520387607349997e-09,
        -2.1810335858567638e-07,
        4.989956378936762,
        0.0,
        3.4337244033813477,
        -7.9827189445495605,
        49.9950065612793,
        1.0
      ],
      "name": "Cube"
    },
    {
      "mesh": 0,
      "name": "Cube_Material.002_0"
    },
    {
      "children": [
        6
      ],
      "matrix": [
        11.939913728231634,
        0.08734851624980108,
        1.1736044441779482e-08,
        0.0,
        -0.08734851624980151,
        11.939913728231623,
        5.218383548514254e-07,
        0.0,
        -3.3091178286092553e-09,
        -2.1811210142494598e-07,
        4.989956378936762,
        0.0,
        2.279996871948242,
        25.975597381591797,
        49.9950065612793,
        1.0
      ],
      "name": "Cube.001"
    },
    {
      "mesh": 1,
      "name": "Cube.001_Material.003_0"
    },
    {
      "children": [
        8,
        9
      ],
      "matrix": [
        -0.479680716991419,
        -7.242977317394358e-08,
        -1.2697042857946947e-23,
        0.0,
        -1.18003078829771e-14,
        7.814990862293525e-08,
        -0.4796807169914181,
        0.0,
        8.990211104078996e-06,
        -59.53947830200048,
        -9.700212282038202e-06,
        0.0,
        81.62691497802734,
        17.201719284057617,
        51.16697692871094,
        1.0
      ],
      "name": "Cylinder"
    },
    {
      "mesh": 2,
      "name": "Cylinder_Material.004_0"
    },
    {
      "mesh": 3,
      "name": "Cylinder_Material.005_0"
    },
    {
      "children": [
        11,
        12
      ],
      "matrix": [
        -0.479680716991419,
        -7.242977317394358e-08,
        -1.2697042857946947e-23,
        0.0,
        -1.18003078829771e-14,
        7.814990862293525e-08,
        -0.4796807169914181,
        0.0,
        8.990211104078996e-06,
        -59.53947830200048,
        -9.700212282038202e-06,
        0.0,
        84.01921081542969,
        17.201719284057617,
        51.16697692871094,
        1.0
      ],
      "name": "Cylinder.001"
    },
    {
      "mesh": 4,
      "name": "Cylinder.001_Material.004_0"
    },
    {
      "mesh": 5,
      "name": "Cylinder.001_Material.005_0"
    },
    {
      "children": [
        14,
        15
      ],
      "matrix": [
        -0.479680716991419,
        -7.242977317394358e-08,
        -1.2697042857946947e-23,
        0.0,
        -1.18003078829771e-14,
        7.814990862293525e-08,
        -0.4796807169914181,
        0.0,
        8.990211104078996e-06,
        -59.53947830200048,
        -9.700212282038202e-06,
        0.0,
        86.44928741455078,
        17.201719284057617,
        51.16697692871094,
        1.0
      ],
      "name": "Cylinder.002"
    },
    {
      "mesh": 6,
      "name": "Cylinder.002_Material.004_0"
    },
    {
      "mesh": 7,
      "name": "Cylinder.002_Material.005_0"
    }
  ],
  "samplers": [
    {
      "magFilter": 9729,
      "minFilter": 9987,
      "wrapS": 10497,
      "wrapT": 10497
    }
  ],
  "scene": 0,
  "scenes": [
    {
      "name": "Sketchfab_Scene",
      "nodes": [
        0
      ]
    }
  ],
  "textures": [
    {
      "sampler": 0,
      "source": 0
    }
  ]
}
